<?xml version="1.0" encoding="UTF-8"?>
<svg id="b" data-name="Ebene 2" xmlns="http://www.w3.org/2000/svg" viewBox="0 0 1746.34 868.56">
  <g id="c" data-name="Ebene 5">
    <g>
      <g>
        <g>
          <path d="M1230.45,407.72c-.61,0-1.12-.21-1.54-.63-.42-.42-.63-.94-.63-1.54v-50.15h-16.78c-.61,0-1.12-.21-1.54-.63-.42-.42-.63-.94-.63-1.54v-6.71c0-.66,.21-1.21,.63-1.63s.94-.63,1.54-.63h46.25c.66,0,1.21,.21,1.63,.63,.42,.42,.63,.97,.63,1.63v6.71c0,.61-.21,1.12-.63,1.54s-.97,.63-1.63,.63h-16.69v50.15c0,.61-.21,1.12-.63,1.54s-.97,.63-1.63,.63h-8.34Z"/>
          <path d="M1258.65,407.72c-.48,0-.92-.18-1.31-.54-.39-.36-.59-.82-.59-1.36,0-.24,.06-.51,.18-.82l21.85-58.49c.18-.6,.53-1.13,1.04-1.59,.51-.45,1.22-.68,2.13-.68h9.88c.91,0,1.6,.23,2.09,.68,.48,.45,.85,.98,1.09,1.59l21.85,58.49c.06,.3,.09,.58,.09,.82,0,.54-.18,1-.54,1.36s-.79,.54-1.27,.54h-7.89c-.85,0-1.47-.2-1.86-.59-.39-.39-.65-.77-.77-1.13l-4.26-11.06h-26.93l-4.26,11.06c-.12,.36-.38,.74-.77,1.13s-1.01,.59-1.86,.59h-7.89Zm17.96-23.21h20.59l-10.34-28.02-10.25,28.02Z"/>
          <path d="M1327.57,407.72c-.61,0-1.12-.21-1.54-.63-.42-.42-.63-.94-.63-1.54v-59.03c0-.66,.21-1.21,.63-1.63s.94-.63,1.54-.63h23.49c7.31,0,13.09,1.69,17.32,5.08,4.23,3.39,6.35,8.31,6.35,14.78,0,4.47-1.1,8.19-3.31,11.15-2.21,2.96-5.15,5.11-8.84,6.44l13.24,23.12c.18,.36,.27,.7,.27,1,0,.54-.2,1-.59,1.36-.39,.36-.83,.54-1.31,.54h-8.25c-1.03,0-1.81-.27-2.36-.82s-.97-1.09-1.27-1.63l-11.7-21.49h-12.6v21.76c0,.61-.2,1.12-.59,1.54-.39,.42-.92,.63-1.59,.63h-8.25Zm10.43-34.19h12.79c3.69,0,6.44-.83,8.25-2.49,1.81-1.66,2.72-4,2.72-7.03s-.89-5.4-2.68-7.12c-1.78-1.72-4.55-2.58-8.3-2.58h-12.79v19.22Z"/>
          <path d="M1382.52,407.72c-.48,0-.92-.18-1.31-.54-.39-.36-.59-.82-.59-1.36,0-.24,.06-.51,.18-.82l21.85-58.49c.18-.6,.53-1.13,1.04-1.59,.51-.45,1.22-.68,2.13-.68h9.88c.91,0,1.6,.23,2.09,.68,.48,.45,.85,.98,1.09,1.59l21.85,58.49c.06,.3,.09,.58,.09,.82,0,.54-.18,1-.54,1.36s-.79,.54-1.27,.54h-7.89c-.85,0-1.47-.2-1.86-.59-.39-.39-.65-.77-.77-1.13l-4.26-11.06h-26.93l-4.26,11.06c-.12,.36-.38,.74-.77,1.13s-1.01,.59-1.86,.59h-7.89Zm17.96-23.21h20.59l-10.34-28.02-10.25,28.02Z"/>
          <path d="M1451.44,407.72c-.61,0-1.12-.21-1.54-.63-.42-.42-.63-.94-.63-1.54v-59.03c0-.66,.21-1.21,.63-1.63s.94-.63,1.54-.63h6.98c.85,0,1.47,.2,1.86,.59,.39,.39,.65,.68,.77,.86l26.12,40.63v-39.81c0-.66,.2-1.21,.59-1.63,.39-.42,.92-.63,1.59-.63h7.62c.66,0,1.21,.21,1.63,.63,.42,.42,.63,.97,.63,1.63v58.94c0,.67-.21,1.21-.63,1.63s-.94,.63-1.54,.63h-7.07c-.85,0-1.45-.21-1.81-.63-.36-.42-.63-.69-.82-.82l-26.03-39.72v38.99c0,.61-.21,1.12-.63,1.54s-.97,.63-1.63,.63h-7.62Z"/>
          <path d="M1515.55,407.72c-.61,0-1.12-.21-1.54-.63-.42-.42-.63-.94-.63-1.54v-59.13c0-.6,.21-1.12,.63-1.54s.94-.63,1.54-.63h8.52c.66,0,1.19,.21,1.59,.63,.39,.42,.59,.94,.59,1.54v59.13c0,.61-.2,1.12-.59,1.54-.39,.42-.92,.63-1.59,.63h-8.52Z"/>
          <path d="M1562.53,408.63c-5.62,0-10.32-.83-14.1-2.49-3.78-1.66-6.65-3.84-8.61-6.53-1.97-2.69-3.01-5.52-3.13-8.48,0-.54,.18-1,.54-1.36s.82-.54,1.36-.54h8.07c.78,0,1.37,.17,1.77,.5,.39,.33,.74,.74,1.04,1.22,.36,1.15,1.06,2.28,2.09,3.4,1.03,1.12,2.43,2.04,4.22,2.77,1.78,.73,4.04,1.09,6.76,1.09,4.35,0,7.6-.73,9.75-2.18,2.15-1.45,3.22-3.41,3.22-5.89,0-1.75-.58-3.16-1.72-4.22-1.15-1.06-2.92-2.02-5.3-2.9-2.39-.88-5.55-1.8-9.48-2.77-4.53-1.09-8.33-2.4-11.38-3.94-3.05-1.54-5.35-3.49-6.89-5.85s-2.31-5.35-2.31-8.98,.95-6.62,2.86-9.34,4.62-4.87,8.16-6.44c3.54-1.57,7.75-2.36,12.65-2.36,3.93,0,7.4,.53,10.43,1.59,3.02,1.06,5.53,2.45,7.53,4.17s3.52,3.57,4.58,5.53c1.06,1.97,1.62,3.89,1.68,5.76,0,.48-.17,.92-.5,1.31-.33,.39-.8,.59-1.41,.59h-8.43c-.48,0-.97-.12-1.45-.36-.48-.24-.88-.69-1.18-1.36-.36-1.87-1.54-3.48-3.54-4.81-2-1.33-4.57-2-7.71-2s-5.89,.61-7.89,1.81c-2,1.21-2.99,3.08-2.99,5.62,0,1.69,.5,3.1,1.5,4.22,1,1.12,2.6,2.1,4.81,2.95,2.21,.85,5.12,1.75,8.75,2.72,5.14,1.15,9.34,2.48,12.6,3.99,3.26,1.51,5.65,3.43,7.16,5.76,1.51,2.33,2.27,5.28,2.27,8.84,0,3.99-1.07,7.39-3.22,10.2-2.15,2.81-5.15,4.97-9.02,6.48-3.87,1.51-8.37,2.27-13.51,2.27Z"/>
          <path d="M1598.07,414.25c-.67,0-1.21-.23-1.63-.68-.42-.45-.63-.98-.63-1.59v-8.52c0-.66,.21-1.21,.63-1.63s.97-.63,1.63-.63h53.87c.6,0,1.13,.21,1.59,.63,.45,.42,.68,.97,.68,1.63v8.52c0,.6-.23,1.13-.68,1.59s-.98,.68-1.59,.68h-53.87Z" style="fill: #7468e8;"/>
          <path d="M1661.1,407.72c-.48,0-.92-.2-1.31-.59-.39-.39-.59-.83-.59-1.31,0-.3,.03-.57,.09-.82l21.31-58.22c.18-.66,.56-1.25,1.13-1.77,.57-.51,1.37-.77,2.4-.77h13.42c1.03,0,1.83,.26,2.4,.77,.57,.51,.95,1.1,1.13,1.77l21.22,58.22c.12,.24,.18,.51,.18,.82,0,.48-.2,.92-.59,1.31s-.86,.59-1.41,.59h-11.15c-.91,0-1.59-.23-2.04-.68s-.74-.86-.86-1.22l-3.54-9.25h-24.21l-3.45,9.25c-.12,.36-.39,.77-.82,1.22-.42,.45-1.15,.68-2.18,.68h-11.15Zm21.31-24.21h16.87l-8.52-23.94-8.34,23.94Z" style="fill: #7468e8;"/>
          <path d="M1731.92,407.72c-.67,0-1.21-.21-1.63-.63-.42-.42-.63-.97-.63-1.63v-58.94c0-.66,.21-1.21,.63-1.63s.97-.63,1.63-.63h12.15c.66,0,1.21,.21,1.63,.63,.42,.42,.63,.97,.63,1.63v58.94c0,.67-.21,1.21-.63,1.63s-.97,.63-1.63,.63h-12.15Z" style="fill: #7468e8;"/>
        </g>
        <g>
          <path d="M1342.16,785.96h0c-20.43-140.05-107.15-267.69-230.07-338.62-4.5,28.97-11.42,57.82-20.68,86.22,79.41,53.38,139.32,137.23,161.83,231.95-94.45,33.36-197.57,23.12-281.39-25.04-.09,.1-.18,.19-.26,.29-49.04-27.45-91.65-65.8-125.69-109.92,.15-.17,.31-.33,.46-.49-26.07-33.88-46.87-70.52-62.6-110.32-27.14,7.34-53.09,17.9-77.38,31.28,4.19,10.57,8.76,21.04,13.65,31.41h-.83c107.58,229.94,361.56,353.16,598.19,247.75h0s29.53-12.71,29.53-12.71l-4.77-31.79Z" style="fill: #7468e8;"/>
          <path d="M775.28,740.47c-78.75,46.15-185.85,59.42-281.46,25.33,22.45-94.83,82.38-178.8,161.87-232.24-.05-.15-.09-.3-.14-.45,46.2-31.12,99.13-52.64,155.61-61.8,.01,.05,.03,.09,.04,.14,40.72-6.78,84.09-6.77,124.72,0,7.88-26.73,12.93-54.37,14.65-82.22-25.57-4.2-51.61-6.37-77.83-6.3h0c-228.37-3.82-438.35,176.96-468.58,403.07l-3.94,31.8,29.54,12.71s0,0,0,0c134.54,59.3,285.54,48.71,408.22-30.45-22.22-18-43.2-37.94-62.69-59.59Z" style="fill: #7468e8;"/>
          <path d="M754,355.29c1.25-88.97,43.71-185.27,119.13-249.3,150.69,132.04,142.78,325.91,63.9,467.94h.82c-10.89,19.64-23.26,38.41-37.1,56.4,18.8,20.61,39.82,39.31,62.75,55.29,31.7-40.22,58.41-86.71,77.2-134.33-.23-.13-.46-.24-.69-.37,21.67-54.8,33.74-112,35.55-168.5,.27,.12,.55,.23,.83,.34,6.11-156.61-70.23-293.46-202.84-382.78l-24.94,18.61s0,0,0,0c-119.56,88.29-183.1,220.56-177.92,364.19,26.91-11.52,54.79-20.71,83.31-27.51Z" style="fill: #7468e8;"/>
        </g>
      </g>
      <path d="M0,405.46v-58.94" style="fill: none;"/>
    </g>
  </g>
</svg>